<svg width="100%" height="100%" viewBox="0 0 101 101" preserveAspectRatio="xMidYMid meet" fill="none" xmlns="http://www.w3.org/2000/svg">
<path d="M16.1069 10.4474C16.145 10.0567 16.0944 9.66233 15.9592 9.29578C15.8239 8.92932 15.6078 8.60105 15.3283 8.33759L9.53923 1.08491V0H27.4976L41.3899 31.7288L53.6025 0H70.7534V1.08491L65.8006 6.02517C65.5917 6.19238 65.4301 6.41537 65.333 6.67048C65.2359 6.9256 65.2069 7.20333 65.2491 7.47422V43.7829C65.2056 44.0532 65.234 44.3309 65.3312 44.5857C65.4284 44.8405 65.5908 45.0627 65.8006 45.2282L70.6345 50.1684V51.2533H46.3247V50.1684L51.3315 45.1081C51.8218 44.5975 51.8218 44.4436 51.8218 43.6627V14.314L37.9006 51.1332H36.019L19.7981 14.314V38.9777C19.7318 39.4895 19.7781 40.0103 19.9336 40.5007C20.0891 40.9911 20.3497 41.4382 20.6956 41.8083L27.2056 50.0333V51.1182H8.75342V50.0333L15.267 41.8083C15.6106 41.4383 15.8657 40.9893 16.0116 40.4975C16.1575 40.0057 16.1902 39.4851 16.1069 38.9777V10.4474Z" fill="#BEA9EF"/>
</svg>
