<svg width="436" height="512" viewBox="0 0 436 512" fill="none" xmlns="http://www.w3.org/2000/svg">
      <path d="M256.701 158.5L234.442 19.8C232.611 8.4 223.072 0 211.894 0C204.667 0 197.922 3.5 193.586 9.5L177.301 32H127.098C114.86 32 103.104 37.1 94.4321 46.1L77.0874 64H23.1262C10.3104 64 0 74.7 0 88V112C0 156.2 34.4966 192 77.0874 192H107.922H123.34H143.864L148.779 222.5L256.701 158.5ZM154.175 256.1V480C154.175 497.7 167.954 512 185.01 512H215.845C232.9 512 246.68 497.7 246.68 480V364.8C269.806 377.1 296.016 384 323.767 384C351.519 384 377.728 377.1 400.854 364.8V480C400.854 497.7 414.634 512 431.689 512H462.524C479.58 512 493.359 497.7 493.359 480V249.8C521.111 238.9 542.888 214.5 550.404 183.3L554.066 167.8C558.209 150.7 548.188 133.3 531.614 129C515.04 124.7 498.37 135.1 494.227 152.3L490.469 167.8C487.096 182 474.762 192 460.597 192H431.689H416.272H262.29L154.175 256.1ZM107.922 80C107.922 75.7565 109.547 71.6869 112.438 68.6863C115.329 65.6857 119.251 64 123.34 64C127.429 64 131.35 65.6857 134.242 68.6863C137.133 71.6869 138.757 75.7565 138.757 80C138.757 84.2435 137.133 88.3131 134.242 91.3137C131.35 94.3143 127.429 96 123.34 96C119.251 96 115.329 94.3143 112.438 91.3137C109.547 88.3131 107.922 84.2435 107.922 80Z" fill="#CDFBF8" />
</svg>